<svg xmlns="http://www.w3.org/2000/svg" width="96" height="96" viewBox="0 0 96 96">
  <defs>
    <linearGradient id="g1" x1="0%" y1="0%" x2="100%" y2="100%"><stop offset="0%" stop-color="#FFB347"/><stop offset="100%" stop-color="#F07C00"/></linearGradient>
    <linearGradient id="bg" x1="0%" y1="0%" x2="100%" y2="100%"><stop offset="0%" stop-color="#1c1c1c"/><stop offset="100%" stop-color="#0e0e0e"/></linearGradient>
    <filter id="gl" x="-60%" y="-60%" width="220%" height="220%"><feGaussianBlur stdDeviation="2" result="b"/><feMerge><feMergeNode in="b"/><feMergeNode in="SourceGraphic"/></feMerge></filter>
  </defs>
  <rect width="96" height="96" rx="22" fill="url(#bg)"/>
  <rect width="96" height="96" rx="22" fill="none" stroke="#F07C00" stroke-width="2.5"/>
  <circle cx="30" cy="50" r="21" fill="none" stroke="white" stroke-width="7.5"/>
  <circle cx="43" cy="32" r="13" fill="#0e0e0e"/>
  <circle cx="50" cy="21" r="3" fill="url(#g1)" filter="url(#gl)"/>
  <circle cx="56" cy="29" r="1.8" fill="#FFB347"/>
  <circle cx="47" cy="17" r="2.2" fill="url(#g1)" filter="url(#gl)"/>
  <path d="M 55 34 C 54 29 60 28 59 33 C 59 37 56 39 55 34 Z" fill="url(#g1)"/>
  <text x="50" y="76" font-family="Oswald,Impact,sans-serif" font-weight="700" font-size="32" fill="white" letter-spacing="-1">240</text>
  <path d="M 9 82 Q 48 93 87 75" stroke="url(#g1)" stroke-width="2.2" fill="none" stroke-linecap="round" filter="url(#gl)"/>
  <path d="M 80 72 L 88 76 L 80 80 Z" fill="#F07C00"/>
  <path d="M 73 20 C 72 12 78 7 75 4 C 81 10 83 19 78 26 C 76 21 73 19 73 20 Z" fill="url(#g1)" opacity="0.95" filter="url(#gl)"/>
</svg>
